<svg xmlns="http://www.w3.org/2000/svg" xmlns:xlink="http://www.w3.org/1999/xlink" viewBox="0 0 48 48"><defs><style>.cls-1{fill:none;}.cls-2{fill:url(#Degradado_sin_nombre_5);}.cls-3{fill:#fff;}.cls-4{opacity:0.14;}.cls-5{fill:#1b0000;}.cls-6{fill:#3e2723;}.cls-7{fill:#a3571a;}.cls-8{opacity:0.75;}.cls-9{fill:#c7b299;}</style><linearGradient id="Degradado_sin_nombre_5" x1="40.99" y1="40.95" x2="24.04" y2="24" gradientUnits="userSpaceOnUse"><stop offset="0" stop-color="#fff" stop-opacity="0"/><stop offset="1" stop-opacity="0.14"/></linearGradient></defs><title>ic_launcher_round</title><g id="Capa_2" data-name="Capa 2"><g id="ic_launcher_round"><path class="cls-1" d="M48,24A24,24,0,0,1,24,48c-.6,0-1.19,0-1.78-.07A24,24,0,0,1,24,0,24,24,0,0,1,47.94,22.37C48,22.91,48,23.45,48,24Z"/><path class="cls-2" d="M48,22.43V24A24,24,0,0,1,24,48H22.29l-.07-.07-11-11.08L15,33.06l1.34-1.33L19.06,29l2.12-2.11,2.23-2.23L24,24h0l3-3,.79-.79.4-.39.92-.92,1.29-1.29,1.29-1.29,0-.05,1.36-1.35,3.74-3.74,0,0,11,11.22Z"/><path class="cls-3" d="M24.06,5.87A18.13,18.13,0,1,0,24,42.13h.07A18.15,18.15,0,0,0,42.23,24h0A18.15,18.15,0,0,0,24.06,5.87Z"/><path class="cls-4" d="M42.23,24h0A18.15,18.15,0,0,1,24.06,42.13H24l-9.31-9.36L33.2,15.12Z"/><path class="cls-5" d="M24.06,24s8.87-4.24,9.14-9l0,0A12.86,12.86,0,0,0,14.93,33.05C15.5,27.83,24.06,24,24.06,24Z"/><path class="cls-6" d="M33.2,15c-.27,4.81-9.14,9-9.14,9s-8.56,3.83-9.13,9.05l0,0A12.86,12.86,0,0,0,33.2,15Z"/><path class="cls-7" d="M17.17,17.12a11,11,0,0,1,15-.41l-.41-.44A10.94,10.94,0,0,0,16.32,31.73l.44.41A10.91,10.91,0,0,1,17.17,17.12Z"/><g class="cls-8"><path class="cls-9" d="M32.82,23.35a8.12,8.12,0,0,0-1.44-4.63,7.79,7.79,0,0,0-.86-1l-.06-.07a8.22,8.22,0,0,0-5.87-2.47v0H23.41v0a8.24,8.24,0,0,0-8.23,8.21h0v1.18h0a8.13,8.13,0,0,0,1.54,4.77,6.31,6.31,0,0,0,.71.84,1.34,1.34,0,0,0,.23.25,8.2,8.2,0,0,0,5.75,2.35v0h1.18v0a8.24,8.24,0,0,0,8.23-8.21h0V23.35ZM29.17,18.9l0,0a8.28,8.28,0,0,1,.67.89H28.11A9.39,9.39,0,0,0,26.72,17,7.73,7.73,0,0,1,29.17,18.9Zm-4.58-2.53c1.21.32,2.25,1.62,2.89,3.45H24.59Zm0,4.63h3.22c0,.23.1.46.13.7a10.84,10.84,0,0,1,.17,1.65H24.59Zm0,3.53h3.52a12.37,12.37,0,0,1-.3,2.35H24.59Zm-1.18-8.16v3.45H20.52C21.16,18,22.2,16.69,23.41,16.37Zm0,4.63v2.35H19.89a12.36,12.36,0,0,1,.3-2.35ZM20.1,17a9.15,9.15,0,0,0-1.38,2.78H17A7.77,7.77,0,0,1,20.1,17Zm-3.77,4h2.08a13.49,13.49,0,0,0-.29,2.35H15.77A7.63,7.63,0,0,1,16.33,21Zm0,5.88a7.63,7.63,0,0,1-.56-2.35h2.35a13.49,13.49,0,0,0,.29,2.35Zm2,2.81a2.3,2.3,0,0,1-.23-.21,6,6,0,0,1-.79-.88,5.3,5.3,0,0,1-.39-.54h1.77a5.85,5.85,0,0,0,.23.63c0,.1.07.2.11.3a8.4,8.4,0,0,0,1,1.85A7.51,7.51,0,0,1,18.36,29.69Zm5,1.82c-1.21-.32-2.25-1.62-2.89-3.45h2.89Zm0-4.63H20.19c0-.19-.08-.38-.11-.57a11.15,11.15,0,0,1-.19-1.78h3.52Zm1.18,4.63V28.06h2.89C26.84,29.89,25.8,31.19,24.59,31.51Zm2.13-.67a9.52,9.52,0,0,0,1.39-2.78h1.76A7.7,7.7,0,0,1,26.72,30.84Zm3.77-4H28.41a13.48,13.48,0,0,0,.29-2.35H31A7.63,7.63,0,0,1,30.49,26.88ZM28.7,23.35a13.27,13.27,0,0,0-.23-2L28.41,21h2.08A7.63,7.63,0,0,1,31,23.35Z"/></g></g></g></svg>