<svg xmlns="http://www.w3.org/2000/svg" xmlns:xlink="http://www.w3.org/1999/xlink" viewBox="0 0 48 48"><defs><style>.cls-1{fill:#3e2723;}.cls-2{fill:url(#Degradado_sin_nombre_5);}.cls-3{fill:#fff;}.cls-4{opacity:0.14;}.cls-5{fill:#1b0000;}.cls-6{fill:#a3571a;}.cls-7{opacity:0.75;}.cls-8{fill:#c7b299;}</style><linearGradient id="Degradado_sin_nombre_5" x1="46.58" y1="46.55" x2="24.03" y2="24" gradientUnits="userSpaceOnUse"><stop offset="0" stop-color="#fff" stop-opacity="0"/><stop offset="1" stop-opacity="0.14"/></linearGradient></defs><title>ic_launcher</title><g id="Capa_2" data-name="Capa 2"><g id="ic_launcher"><path class="cls-1" d="M48,4.9V43.1A4.91,4.91,0,0,1,43.09,48H4.91A4.91,4.91,0,0,1,0,43.1V4.9A4.91,4.91,0,0,1,4.91,0H43.09A4.91,4.91,0,0,1,48,4.9Z"/><path class="cls-2" d="M48,22.43V43.1A4.91,4.91,0,0,1,43.09,48H22.29L11.19,36.85,36.93,11.15Z"/><path class="cls-3" d="M24.06,5.87A18.13,18.13,0,1,0,24,42.13h.07A18.15,18.15,0,0,0,42.23,24h0A18.15,18.15,0,0,0,24.06,5.87Z"/><path class="cls-4" d="M42.23,24h0A18.15,18.15,0,0,1,24.06,42.13H24l-9.31-9.36L33.2,15.12Z"/><path class="cls-5" d="M24.06,24s8.87-4.24,9.14-9l0,0A12.86,12.86,0,0,0,14.93,33.05C15.5,27.83,24.06,24,24.06,24Z"/><path class="cls-1" d="M33.2,15c-.27,4.81-9.14,9-9.14,9s-8.56,3.83-9.13,9.05l0,0A12.86,12.86,0,0,0,33.2,15Z"/><path class="cls-6" d="M17.17,17.12a11,11,0,0,1,15-.41l-.41-.44A10.94,10.94,0,1,0,16.32,31.73l.44.41A10.91,10.91,0,0,1,17.17,17.12Z"/><g class="cls-7"><path class="cls-8" d="M32.82,23.35a8.25,8.25,0,0,0-8.23-8.21v0H23.41v0a8.25,8.25,0,0,0-8.23,8.22h0v1.18h0a8.25,8.25,0,0,0,8.23,8.22v0h1.18v0a8.25,8.25,0,0,0,8.23-8.21h0V23.35ZM20.1,17a9.35,9.35,0,0,0-1.39,2.78H17A7.7,7.7,0,0,1,20.1,17Zm-3.77,4h2.07a14,14,0,0,0-.29,2.35H15.77A7.57,7.57,0,0,1,16.33,21Zm-.56,3.53h2.35a14,14,0,0,0,.29,2.35H16.33A7.57,7.57,0,0,1,15.77,24.53ZM17,28.06h1.76a9.32,9.32,0,0,0,1.39,2.78A7.69,7.69,0,0,1,17,28.06Zm6.46,3.45c-1.21-.32-2.26-1.62-2.89-3.45h2.89Zm0-4.63H20.19a13.13,13.13,0,0,1-.31-2.35h3.53Zm0-3.53H19.89A13.13,13.13,0,0,1,20.19,21h3.22Zm0-3.53H20.52c.63-1.83,1.68-3.13,2.89-3.45Zm6.46,0H28.11A9.32,9.32,0,0,0,26.72,17,7.71,7.71,0,0,1,29.87,19.82Zm-5.28-3.45c1.21.32,2.26,1.62,2.89,3.45H24.59Zm0,4.63h3.22a13.23,13.23,0,0,1,.31,2.35H24.59Zm0,3.53h3.53a13,13,0,0,1-.31,2.35H24.59Zm0,7V28.06h2.89C26.84,29.89,25.8,31.19,24.59,31.51Zm2.13-.67a9.39,9.39,0,0,0,1.39-2.78h1.76A7.7,7.7,0,0,1,26.72,30.84Zm3.77-4H28.41a14,14,0,0,0,.29-2.35h2.35A7.53,7.53,0,0,1,30.49,26.88ZM28.7,23.35A14,14,0,0,0,28.41,21h2.07a7.57,7.57,0,0,1,.56,2.35Z"/></g></g></g></svg>